<svg width="120" height="120" viewBox="0 0 120 120" fill="none" xmlns="http://www.w3.org/2000/svg">
<g id="poorcast" clip-path="url(#clip0_4_95)">
<g id="poorcast_2">
<g id="cloud">
<path id="Polygon 2" d="M24.891 41.5003C18.8661 41.5587 14 46.461 14 52.4997C14 58.5749 18.9249 63.4997 25 63.4997H38.5801C45.0926 69.9806 55.5895 70.2162 62.3885 63.9611L62.5621 63.8014L65.6364 66.1304C73.0505 71.7473 83.5406 70.5443 89.4982 63.4688C101.287 62.4833 103.589 45.934 92.2498 41.8842L91.9907 41.7917C91.4503 21.1721 67.3592 9.95293 51.2029 23.1033L47.7523 25.9119L44.3422 25.0935C33.8908 22.5851 24.1673 30.9942 24.891 41.5003Z" fill="white" stroke="black" stroke-width="2" stroke-miterlimit="1.41421" stroke-linecap="round"/>
<path id="Line 1" d="M30 41L30.1097 39.5191C30.5877 33.066 36.6173 28.4362 43 29.5V29.5" stroke="black" stroke-width="2"/>
</g>
<g id="drops">
<g id="dollar4">
<g id="Group_3">
<path id="Vector_3" d="M93.0978 73.0924H93.6088C93.6088 72.1031 94.5255 71.2975 95.6504 71.2975V70.8481C94.245 70.8481 93.0978 71.8538 93.0978 73.0924Z" fill="#3BA13F" stroke="#3BA13F" stroke-width="0.00423755" stroke-miterlimit="2" stroke-linecap="square" stroke-linejoin="round"/>
</g>
<g id="Group_4">
<path id="Vector_4" d="M95.6504 75.3368V74.8874C94.5255 74.8874 93.6088 74.0818 93.6088 73.0925H93.0978C93.0978 74.3284 94.242 75.3368 95.6504 75.3368Z" fill="#3BA13F" stroke="#3BA13F" stroke-width="0.00423755" stroke-miterlimit="2" stroke-linecap="square" stroke-linejoin="round"/>
</g>
<g id="Group_5">
<path id="Vector_5" d="M95.6504 70.8482V71.2976C96.7753 71.2976 97.692 72.1033 97.692 73.0925H98.203C98.203 71.8566 97.0589 70.8482 95.6504 70.8482Z" fill="#3BA13F" stroke="#3BA13F" stroke-width="0.00423755" stroke-miterlimit="2" stroke-linecap="square" stroke-linejoin="round"/>
</g>
<g id="Group_6">
<path id="Vector_6" fill-rule="evenodd" clip-rule="evenodd" d="M95.8456 69.8405C95.8456 69.8235 95.8387 69.8075 95.8248 69.7955C95.811 69.7836 95.7926 69.7768 95.7734 69.7768H95.5275C95.5083 69.7768 95.4898 69.7836 95.476 69.7955C95.4629 69.8075 95.4552 69.8235 95.4552 69.8405V80.3059C95.4552 80.3228 95.4629 80.339 95.476 80.3508C95.4898 80.3628 95.5083 80.3695 95.5275 80.3695H95.7734C95.7926 80.3695 95.811 80.3628 95.8248 80.3508C95.8387 80.339 95.8456 80.3228 95.8456 80.3059V69.8405Z" fill="#3BA13F" stroke="#3BA13F" stroke-width="0.00524525" stroke-miterlimit="1.5" stroke-linecap="square"/>
</g>
<g id="Group_7">
<path id="Vector_7" d="M98.203 77.1251H97.692C97.692 78.1144 96.7753 78.92 95.6504 78.92V79.3695C97.0558 79.3695 98.203 78.3637 98.203 77.1251Z" fill="#3BA13F" stroke="#3BA13F" stroke-width="0.00423755" stroke-miterlimit="2" stroke-linejoin="round"/>
</g>
<g id="Group_8">
<path id="Vector_8" d="M95.6504 74.8806V75.3301C96.7753 75.3301 97.692 76.1357 97.692 77.125H98.203C98.203 75.8891 97.0589 74.8806 95.6504 74.8806Z" fill="#3BA13F" stroke="#3BA13F" stroke-width="0.00423755" stroke-miterlimit="2" stroke-linejoin="round"/>
</g>
<g id="Group_9">
<path id="Vector_9" d="M95.6504 79.3695V78.92C94.5255 78.92 93.6088 78.1144 93.6088 77.1252H93.0978C93.0978 78.3611 94.242 79.3695 95.6504 79.3695Z" fill="#3BA13F" stroke="#3BA13F" stroke-width="0.00423755" stroke-miterlimit="2" stroke-linejoin="round"/>
</g>
</g>
<g id="dollar1">
<g id="Group_10">
<path id="Vector_10" d="M27.1769 88.3107H27.688C27.688 87.3214 28.6043 86.5157 29.7294 86.5157V86.0663C28.3238 86.0663 27.1769 87.0721 27.1769 88.3107Z" fill="#3BA13F" stroke="#3BA13F" stroke-width="0.00423755" stroke-miterlimit="2" stroke-linecap="square" stroke-linejoin="round"/>
</g>
<g id="Group_11">
<path id="Vector_11" d="M29.7293 90.555V90.1056C28.6042 90.1056 27.6879 89.2999 27.6879 88.3106H27.1768C27.1768 89.5466 28.3206 90.555 29.7293 90.555Z" fill="#3BA13F" stroke="#3BA13F" stroke-width="0.00423755" stroke-miterlimit="2" stroke-linecap="square" stroke-linejoin="round"/>
</g>
<g id="Group_12">
<path id="Vector_12" d="M29.7294 86.0663V86.5157C30.8544 86.5157 31.7707 87.3214 31.7707 88.3107H32.2819C32.2819 87.0747 31.138 86.0663 29.7294 86.0663Z" fill="#3BA13F" stroke="#3BA13F" stroke-width="0.00423755" stroke-miterlimit="2" stroke-linecap="square" stroke-linejoin="round"/>
</g>
<g id="Group_13">
<path id="Vector_13" fill-rule="evenodd" clip-rule="evenodd" d="M29.9248 85.0587C29.9248 85.0417 29.9172 85.0256 29.9036 85.0136C29.8901 85.0017 29.8717 84.995 29.8525 84.995H29.6061C29.587 84.995 29.5685 85.0017 29.555 85.0136C29.5415 85.0256 29.5338 85.0417 29.5338 85.0587V95.5242C29.5338 95.5411 29.5415 95.5572 29.555 95.5688C29.5685 95.5811 29.587 95.588 29.6061 95.588H29.8525C29.8717 95.588 29.8901 95.5811 29.9036 95.5688C29.9172 95.5572 29.9248 95.5411 29.9248 95.5242V85.0587Z" fill="#3BA13F" stroke="#3BA13F" stroke-width="0.00524525" stroke-miterlimit="1.5" stroke-linecap="square"/>
</g>
<g id="Group_14">
<path id="Vector_14" d="M32.2818 92.3432H31.7707C31.7707 93.3328 30.8544 94.138 29.7293 94.138V94.5875C31.1349 94.5875 32.2818 93.5817 32.2818 92.3432Z" fill="#3BA13F" stroke="#3BA13F" stroke-width="0.00423755" stroke-miterlimit="2" stroke-linejoin="round"/>
</g>
<g id="Group_15">
<path id="Vector_15" d="M29.7294 90.0988V90.5482C30.8544 90.5482 31.7707 91.3539 31.7707 92.3432H32.2819C32.2819 91.1073 31.138 90.0988 29.7294 90.0988Z" fill="#3BA13F" stroke="#3BA13F" stroke-width="0.00423755" stroke-miterlimit="2" stroke-linejoin="round"/>
</g>
<g id="Group_16">
<path id="Vector_16" d="M29.7293 94.5875V94.138C28.6042 94.138 27.6879 93.3328 27.6879 92.3433H27.1768C27.1768 93.5794 28.3206 94.5875 29.7293 94.5875Z" fill="#3BA13F" stroke="#3BA13F" stroke-width="0.00423755" stroke-miterlimit="2" stroke-linejoin="round"/>
</g>
</g>
<g id="dollar3">
<g id="Group_17">
<path id="Vector_17" d="M76.0072 99.8072H76.5183C76.5183 98.8182 77.4346 98.0122 78.5597 98.0122V97.5627C77.1541 97.5627 76.0072 98.5685 76.0072 99.8072Z" fill="#3BA13F" stroke="#3BA13F" stroke-width="0.00423755" stroke-miterlimit="2" stroke-linecap="square" stroke-linejoin="round"/>
</g>
<g id="Group_18">
<path id="Vector_18" d="M78.5598 102.052V101.602C77.4347 101.602 76.5184 100.796 76.5184 99.8072H76.0072C76.0072 101.043 77.1511 102.052 78.5598 102.052Z" fill="#3BA13F" stroke="#3BA13F" stroke-width="0.00423755" stroke-miterlimit="2" stroke-linecap="square" stroke-linejoin="round"/>
</g>
<g id="Group_19">
<path id="Vector_19" d="M78.5596 97.5627V98.0122C79.6847 98.0122 80.601 98.8182 80.601 99.8072H81.1121C81.1121 98.5716 79.9683 97.5627 78.5596 97.5627Z" fill="#3BA13F" stroke="#3BA13F" stroke-width="0.00423755" stroke-miterlimit="2" stroke-linecap="square" stroke-linejoin="round"/>
</g>
<g id="Group_20">
<path id="Vector_20" fill-rule="evenodd" clip-rule="evenodd" d="M78.7551 96.5554C78.7551 96.5384 78.7475 96.5223 78.734 96.51C78.7204 96.4985 78.702 96.4916 78.6828 96.4916H78.4364C78.4173 96.4916 78.3989 96.4985 78.3853 96.51C78.3718 96.5223 78.3641 96.5384 78.3641 96.5554V107.021C78.3641 107.038 78.3718 107.054 78.3853 107.065C78.3989 107.078 78.4173 107.085 78.4364 107.085H78.6828C78.702 107.085 78.7204 107.078 78.734 107.065C78.7475 107.054 78.7551 107.038 78.7551 107.021V96.5554Z" fill="#3BA13F" stroke="#3BA13F" stroke-width="0.00524525" stroke-miterlimit="1.5" stroke-linecap="square"/>
</g>
<g id="Group_21">
<path id="Vector_21" d="M81.1123 103.84H80.6012C80.6012 104.829 79.6849 105.635 78.5597 105.635V106.084C79.9654 106.084 81.1123 105.078 81.1123 103.84Z" fill="#3BA13F" stroke="#3BA13F" stroke-width="0.00423755" stroke-miterlimit="2" stroke-linejoin="round"/>
</g>
<g id="Group_22">
<path id="Vector_22" d="M78.5596 101.595V102.045C79.6847 102.045 80.601 102.851 80.601 103.84H81.1121C81.1121 102.604 79.9683 101.595 78.5596 101.595Z" fill="#3BA13F" stroke="#3BA13F" stroke-width="0.00423755" stroke-miterlimit="2" stroke-linejoin="round"/>
</g>
<g id="Group_23">
<path id="Vector_23" d="M78.5598 106.084V105.635C77.4347 105.635 76.5184 104.829 76.5184 103.84H76.0072C76.0072 105.076 77.1511 106.084 78.5598 106.084Z" fill="#3BA13F" stroke="#3BA13F" stroke-width="0.00423755" stroke-miterlimit="2" stroke-linejoin="round"/>
</g>
</g>
<g id="dollar2">
<g id="Group_24">
<path id="Vector_24" d="M54.7791 80.8084H55.2903C55.2903 79.8191 56.2066 79.0135 57.3317 79.0135V78.5641C55.9261 78.5641 54.7791 79.5698 54.7791 80.8084Z" fill="#3BA13F" stroke="#3BA13F" stroke-width="0.00423755" stroke-miterlimit="2" stroke-linecap="square" stroke-linejoin="round"/>
</g>
<g id="Group_25">
<path id="Vector_25" d="M57.3319 83.0526V82.6033C56.2067 82.6033 55.2904 81.7976 55.2904 80.8083H54.7793C54.7793 82.0442 55.9231 83.0526 57.3319 83.0526Z" fill="#3BA13F" stroke="#3BA13F" stroke-width="0.00423755" stroke-miterlimit="2" stroke-linecap="square" stroke-linejoin="round"/>
</g>
<g id="Group_26">
<path id="Vector_26" d="M57.3317 78.5638V79.0133C58.4568 79.0133 59.3731 79.8189 59.3731 80.8082H59.8842C59.8842 79.5723 58.7404 78.5638 57.3317 78.5638Z" fill="#3BA13F" stroke="#3BA13F" stroke-width="0.00423755" stroke-miterlimit="2" stroke-linecap="square" stroke-linejoin="round"/>
</g>
<g id="Group_27">
<path id="Vector_27" fill-rule="evenodd" clip-rule="evenodd" d="M57.5274 77.5562C57.5274 77.5392 57.5197 77.5231 57.5062 77.5112C57.4926 77.4992 57.4742 77.4925 57.455 77.4925H57.2086C57.1895 77.4925 57.1711 77.4992 57.1575 77.5112C57.144 77.5231 57.1363 77.5392 57.1363 77.5562V88.0215C57.1363 88.0385 57.144 88.0547 57.1575 88.0665C57.1711 88.0785 57.1895 88.0852 57.2086 88.0852H57.455C57.4742 88.0852 57.4926 88.0785 57.5062 88.0665C57.5197 88.0547 57.5274 88.0385 57.5274 88.0215V77.5562Z" fill="#3BA13F" stroke="#3BA13F" stroke-width="0.00524525" stroke-miterlimit="1.5" stroke-linecap="square"/>
</g>
<g id="Group_28">
<path id="Vector_28" d="M59.8844 84.841H59.3732C59.3732 85.8302 58.4569 86.6359 57.3318 86.6359V87.0853C58.7374 87.0853 59.8844 86.0796 59.8844 84.841Z" fill="#3BA13F" stroke="#3BA13F" stroke-width="0.00423755" stroke-miterlimit="2" stroke-linejoin="round"/>
</g>
<g id="Group_29">
<path id="Vector_29" d="M57.3317 82.5967V83.0461C58.4568 83.0461 59.3731 83.8518 59.3731 84.8411H59.8842C59.8842 83.6051 58.7404 82.5967 57.3317 82.5967Z" fill="#3BA13F" stroke="#3BA13F" stroke-width="0.00423755" stroke-miterlimit="2" stroke-linejoin="round"/>
</g>
<g id="Group_30">
<path id="Vector_30" d="M57.3319 87.0851V86.6357C56.2067 86.6357 55.2904 85.83 55.2904 84.8408H54.7793C54.7793 86.0767 55.9231 87.0851 57.3319 87.0851Z" fill="#3BA13F" stroke="#3BA13F" stroke-width="0.00423755" stroke-miterlimit="2" stroke-linejoin="round"/>
</g>
</g>
<g id="drop1" class="rain-fast">
<path id="Vector_31" fill-rule="evenodd" clip-rule="evenodd" d="M26.4533 69.0635C26.4533 69.0467 26.4439 69.0306 26.4274 69.0187C26.4109 69.0067 26.3884 69 26.365 69H26.0036C25.9802 69 25.9578 69.0067 25.9413 69.0187C25.9247 69.0306 25.9154 69.0467 25.9154 69.0635V78.4577C25.9154 78.4745 25.9247 78.4908 25.9413 78.5026C25.9578 78.5147 25.9802 78.5213 26.0036 78.5213H26.365C26.3884 78.5213 26.4109 78.5147 26.4274 78.5026C26.4439 78.4908 26.4533 78.4745 26.4533 78.4577V69.0635Z" fill="black" stroke="black" stroke-width="0.00556329" stroke-miterlimit="1.5" stroke-linecap="round" stroke-dasharray="0.01 0.02 0.03 0.05"/>
</g>
<g id="drop10" class="rain-med-slow">
<path id="Vector_32" fill-rule="evenodd" clip-rule="evenodd" d="M19.5379 86.7363C19.5379 86.7195 19.5285 86.7034 19.512 86.6915C19.4955 86.6795 19.4729 86.6728 19.4496 86.6728H19.0881C19.0648 86.6728 19.0423 86.6795 19.0258 86.6915C19.0093 86.7034 19 86.7195 19 86.7363V96.1304C19 96.1473 19.0093 96.1635 19.0258 96.1758C19.0423 96.1873 19.0648 96.1942 19.0881 96.1942H19.4496C19.4729 96.1942 19.4955 96.1873 19.512 96.1758C19.5285 96.1635 19.5379 96.1473 19.5379 96.1304V86.7363Z" fill="black" stroke="black" stroke-width="0.00556329" stroke-miterlimit="1.5" stroke-linecap="round" stroke-dasharray="0.01 0.02 0.03 0.05"/>
</g>
<g id="drop2" class="rain-med">
<path id="Vector_33" fill-rule="evenodd" clip-rule="evenodd" d="M37.1143 78.8531C37.1143 78.8363 37.105 78.8201 37.0884 78.8083C37.0719 78.7962 37.0493 78.7896 37.026 78.7896H36.6646C36.6412 78.7896 36.6187 78.7962 36.6022 78.8083C36.5857 78.8201 36.5764 78.8363 36.5764 78.8531V88.2473C36.5764 88.2641 36.5857 88.2803 36.6022 88.2922C36.6187 88.3042 36.6412 88.3108 36.6646 88.3108H37.026C37.0493 88.3108 37.0719 88.3042 37.0884 88.2922C37.105 88.2803 37.1143 88.2641 37.1143 88.2473V78.8531Z" fill="black" stroke="black" stroke-width="0.00556329" stroke-miterlimit="1.5" stroke-linecap="round" stroke-dasharray="0.01 0.02 0.03 0.05"/>
</g>
<g id="drop4" class="rain-slow">
<path id="Vector_34" fill-rule="evenodd" clip-rule="evenodd" d="M44.7981 97.2945C44.7981 97.2776 44.7888 97.2615 44.7722 97.2492C44.7557 97.2377 44.7331 97.2308 44.7098 97.2308H44.3484C44.325 97.2308 44.3025 97.2377 44.286 97.2492C44.2695 97.2615 44.2602 97.2776 44.2602 97.2945V106.689C44.2602 106.705 44.2695 106.722 44.286 106.733C44.3025 106.746 44.325 106.752 44.3484 106.752H44.7098C44.7331 106.752 44.7557 106.746 44.7722 106.733C44.7888 106.722 44.7981 106.705 44.7981 106.689V97.2945Z" fill="black" stroke="black" stroke-width="0.00556329" stroke-miterlimit="1.5" stroke-linecap="round" stroke-dasharray="0.01 0.02 0.03 0.05"/>
</g>
<g id="drop5" class="rain-fast">
<path id="Vector_35" fill-rule="evenodd" clip-rule="evenodd" d="M54.0187 88.8421C54.0187 88.8253 54.0094 88.8091 53.9929 88.7972C53.9763 88.7852 53.9537 88.7786 53.9304 88.7786H53.569C53.5456 88.7786 53.5231 88.7852 53.5066 88.7972C53.4901 88.8091 53.4808 88.8253 53.4808 88.8421V98.2366C53.4808 98.2527 53.4901 98.2696 53.5066 98.2812C53.5231 98.2934 53.5456 98.2996 53.569 98.2996H53.9304C53.9537 98.2996 53.9763 98.2934 53.9929 98.2812C54.0094 98.2696 54.0187 98.2527 54.0187 98.2366V88.8421Z" fill="black" stroke="black" stroke-width="0.00556329" stroke-miterlimit="1.5" stroke-linecap="round" stroke-dasharray="0.01 0.02 0.03 0.05"/>
</g>
<g id="drop6" class="rain-med">
<path id="Vector_36" fill-rule="evenodd" clip-rule="evenodd" d="M64.776 96.5261C64.776 96.5092 64.7667 96.4931 64.7502 96.4808C64.7337 96.4693 64.7111 96.4624 64.6877 96.4624H64.3264C64.3029 96.4624 64.2805 96.4693 64.264 96.4808C64.2475 96.4931 64.2382 96.5092 64.2382 96.5261V105.92C64.2382 105.937 64.2475 105.953 64.264 105.965C64.2805 105.977 64.3029 105.983 64.3264 105.983H64.6877C64.7111 105.983 64.7337 105.977 64.7502 105.965C64.7667 105.953 64.776 105.937 64.776 105.92V96.5261Z" fill="black" stroke="black" stroke-width="0.00556329" stroke-miterlimit="1.5" stroke-linecap="round" stroke-dasharray="0.01 0.02 0.03 0.05"/>
</g>
<g id="drop9" class="rain-med-slow">
<path id="Vector_37" fill-rule="evenodd" clip-rule="evenodd" d="M93.2615 91.1527C93.2615 91.1359 93.2523 91.1197 93.2354 91.1078C93.2192 91.0958 93.197 91.0892 93.1731 91.0892H92.812C92.7882 91.0892 92.7659 91.0958 92.7498 91.1078C92.7329 91.1197 92.7236 91.1359 92.7236 91.1527V100.547C92.7236 100.564 92.7329 100.58 92.7498 100.592C92.7659 100.604 92.7882 100.61 92.812 100.61H93.1731C93.197 100.61 93.2192 100.604 93.2354 100.592C93.2523 100.58 93.2615 100.564 93.2615 100.547V91.1527Z" fill="black" stroke="black" stroke-width="0.00556329" stroke-miterlimit="1.5" stroke-linecap="round" stroke-dasharray="0.01 0.02 0.03 0.05"/>
</g>
<g id="drop8" class="rain-med">
<path id="Vector_38" fill-rule="evenodd" clip-rule="evenodd" d="M84.5915 81.6314C84.5915 81.6146 84.5822 81.5984 84.5657 81.5865C84.5492 81.5745 84.5266 81.5679 84.5032 81.5679H84.1418C84.1185 81.5679 84.096 81.5745 84.0795 81.5865C84.063 81.5984 84.0536 81.6146 84.0536 81.6314V91.0255C84.0536 91.0424 84.063 91.0586 84.0795 91.0705C84.096 91.0825 84.1185 91.0891 84.1418 91.0891H84.5032C84.5266 91.0891 84.5492 91.0825 84.5657 91.0705C84.5822 91.0586 84.5915 91.0424 84.5915 91.0255V81.6314Z" fill="black" stroke="black" stroke-width="0.00556329" stroke-miterlimit="1.5" stroke-linecap="round" stroke-dasharray="0.01 0.02 0.03 0.05"/>
</g>
<g id="drop7" class="rain-slow">
<path id="Vector_39" fill-rule="evenodd" clip-rule="evenodd" d="M73.3546 75.8794C73.3546 75.8626 73.3453 75.8464 73.3288 75.8345C73.3123 75.8225 73.2898 75.8159 73.2664 75.8159H72.905C72.8816 75.8159 72.8592 75.8225 72.8427 75.8345C72.8261 75.8464 72.8168 75.8626 72.8168 75.8794V85.2736C72.8168 85.2904 72.8261 85.3065 72.8427 85.3185C72.8592 85.3304 72.8816 85.3371 72.905 85.3371H73.2664C73.2898 85.3371 73.3123 85.3304 73.3288 85.3185C73.3453 85.3065 73.3546 85.2904 73.3546 85.2736V75.8794Z" fill="black" stroke="black" stroke-width="0.00556329" stroke-miterlimit="1.5" stroke-linecap="round" stroke-dasharray="0.01 0.02 0.03 0.05"/>
</g>
</g>
</g>
</g>
<defs>
<clipPath id="clip0_4_95">
<rect width="120" height="120" fill="white"/>
</clipPath>
</defs>
</svg>
